<?xml version="1.0" standalone="no"?><svg xmlns="http://www.w3.org/2000/svg" viewBox="0 0 1440 320"><path fill="#8600FF" fill-opacity="1" d="M0,128L26.7,133.3C53.3,139,107,149,160,133.3C213.3,117,267,75,320,74.7C373.3,75,427,117,480,160C533.3,203,587,245,640,224C693.3,203,747,117,800,74.7C853.3,32,907,32,960,64C1013.3,96,1067,160,1120,197.3C1173.3,235,1227,245,1280,245.3C1333.3,245,1387,235,1413,229.3L1440,224L1440,320L1413.3,320C1386.7,320,1333,320,1280,320C1226.7,320,1173,320,1120,320C1066.7,320,1013,320,960,320C906.7,320,853,320,800,320C746.7,320,693,320,640,320C586.7,320,533,320,480,320C426.7,320,373,320,320,320C266.7,320,213,320,160,320C106.7,320,53,320,27,320L0,320Z"></path></svg>