<?xml version="1.0" standalone="no"?><svg xmlns="http://www.w3.org/2000/svg" viewBox="0 0 1440 320"><path fill="#8600FF" fill-opacity="1" d="M0,192L21.8,202.7C43.6,213,87,235,131,256C174.5,277,218,299,262,288C305.5,277,349,235,393,192C436.4,149,480,107,524,80C567.3,53,611,43,655,64C698.2,85,742,139,785,133.3C829.1,128,873,64,916,58.7C960,53,1004,107,1047,128C1090.9,149,1135,139,1178,117.3C1221.8,96,1265,64,1309,74.7C1352.7,85,1396,139,1418,165.3L1440,192L1440,0L1418.2,0C1396.4,0,1353,0,1309,0C1265.5,0,1222,0,1178,0C1134.5,0,1091,0,1047,0C1003.6,0,960,0,916,0C872.7,0,829,0,785,0C741.8,0,698,0,655,0C610.9,0,567,0,524,0C480,0,436,0,393,0C349.1,0,305,0,262,0C218.2,0,175,0,131,0C87.3,0,44,0,22,0L0,0Z"></path></svg>